<svg width="218" height="42" viewBox="0 0 218 42" fill="none" xmlns="http://www.w3.org/2000/svg">
    <g clip-path="url(#clip0_215_5913)">
        <path
            d="M72.2888 22.6929V30.6725H77.2716V23.6521C77.2518 23.6529 77.232 23.6537 77.2122 23.6545C76.6922 23.6332 76.1737 23.5866 75.6584 23.515V29.0744H73.9114V23.1825C73.3622 23.048 72.8205 22.8846 72.2888 22.6929Z"
            fill="white" />
        <path
            d="M72.2888 11.4819V19.1251C72.8142 19.3742 73.3564 19.5868 73.9114 19.7614V13.0725H75.6584V19.2954L77.2716 17.6386V11.4819H72.2888Z"
            fill="white" />
        <path
            d="M72.2888 20.0039V21.6512C72.819 21.8587 73.3608 22.0359 73.9114 22.182C74.486 22.3364 75.0693 22.4565 75.6584 22.5419C75.8908 22.575 76.1239 22.6027 76.3576 22.625L74.5539 20.7725C74.3383 20.72 74.1241 20.6621 73.9114 20.5989C73.3582 20.4355 72.8162 20.2367 72.2888 20.0039Z"
            fill="white" />
        <path
            d="M82.56 11.4814L77.2969 17.6386L78.4144 18.7862L83.2711 13.1046H85.5329L79.6188 20.0233L79.7453 20.1532C80.5508 20.0224 81.3416 19.8141 82.1064 19.5313L88.9873 11.4814H82.56Z"
            fill="white" />
        <path
            d="M83.2218 22.6289C82.8684 22.7762 82.5099 22.9108 82.1468 23.0324C81.9767 23.0703 81.8059 23.1055 81.6347 23.1379L86.5287 29.0428H84.2954L79.7364 23.5291C79.7256 23.5313 79.7149 23.5336 79.7041 23.5358C79.0597 23.6057 78.4116 23.6366 77.7634 23.6281L83.6191 30.6707H89.9174L83.2218 22.6289Z"
            fill="white" />
        <path d="M75.2815 20.6014L77.2842 22.6582L79.2869 20.6014L77.2842 18.5445L75.2815 20.6014Z"
            fill="white" />
        <path
            d="M91.8472 10.7227L91.6947 10.8341L89.956 12.1055L88.043 13.5042L89.5344 13.671L89.7072 13.6903C89.6223 13.8894 89.5326 14.0865 89.438 14.2813C89.1 14.8906 88.7143 15.4727 88.2844 16.0222C87.8546 16.5717 87.3819 17.0868 86.8707 17.5629C86.3596 18.0391 85.8115 18.4747 85.2317 18.8657C84.6518 19.2568 84.0419 19.6021 83.4076 19.8984C82.7732 20.1948 82.1164 20.4413 81.4431 20.6357C80.9105 20.78 80.3694 20.8915 79.8229 20.9696L78.187 22.6497C78.5816 22.6492 78.9761 22.6332 79.3694 22.6018C80.0757 22.5229 80.7754 22.3941 81.4632 22.2164C82.151 22.0388 82.8251 21.8127 83.4805 21.5398C84.1358 21.267 84.7707 20.9481 85.3803 20.5856C85.9899 20.2232 86.5726 19.818 87.124 19.3732C87.6755 18.9285 88.1943 18.4453 88.6764 17.9273C89.1585 17.4094 89.6027 16.8579 90.0057 16.2772C90.4086 15.6965 90.7693 15.088 91.085 14.4564C91.107 14.4039 91.1288 14.3512 91.1502 14.2985L92.4164 15.3427L91.8472 10.7227Z"
            fill="white" />
    </g>
    <path
        d="M104.925 26C104.729 26 104.556 25.93 104.407 25.79C104.267 25.65 104.197 25.4773 104.197 25.272V15.794C104.197 15.5887 104.267 15.416 104.407 15.276C104.556 15.136 104.729 15.066 104.925 15.066C105.13 15.066 105.303 15.136 105.443 15.276C105.583 15.416 105.653 15.5887 105.653 15.794V19.994L110.287 15.36C110.399 15.248 110.502 15.1733 110.595 15.136C110.688 15.0893 110.786 15.066 110.889 15.066C111.122 15.066 111.29 15.136 111.393 15.276C111.496 15.416 111.533 15.584 111.505 15.78C111.477 15.9667 111.388 16.1393 111.239 16.298L107.669 19.882L111.309 24.838C111.421 24.9967 111.468 25.1693 111.449 25.356C111.43 25.5333 111.365 25.6873 111.253 25.818C111.141 25.9393 110.992 26 110.805 26C110.544 26 110.343 25.8973 110.203 25.692L106.661 20.89L105.653 21.898V25.272C105.653 25.4773 105.583 25.65 105.443 25.79C105.303 25.93 105.13 26 104.925 26ZM115.753 26.056C115.071 26.056 114.46 25.888 113.919 25.552C113.377 25.2067 112.948 24.7447 112.631 24.166C112.323 23.578 112.169 22.9153 112.169 22.178C112.169 21.4407 112.337 20.778 112.673 20.19C113.018 19.602 113.48 19.14 114.059 18.804C114.647 18.4587 115.305 18.286 116.033 18.286C116.761 18.286 117.414 18.4587 117.993 18.804C118.571 19.14 119.029 19.602 119.365 20.19C119.71 20.778 119.883 21.4407 119.883 22.178H119.337C119.337 22.9153 119.178 23.578 118.861 24.166C118.553 24.7447 118.128 25.2067 117.587 25.552C117.045 25.888 116.434 26.056 115.753 26.056ZM116.033 24.796C116.509 24.796 116.933 24.684 117.307 24.46C117.68 24.2267 117.974 23.914 118.189 23.522C118.403 23.1207 118.511 22.6727 118.511 22.178C118.511 21.674 118.403 21.226 118.189 20.834C117.974 20.4327 117.68 20.12 117.307 19.896C116.933 19.6627 116.509 19.546 116.033 19.546C115.566 19.546 115.141 19.6627 114.759 19.896C114.385 20.12 114.087 20.4327 113.863 20.834C113.648 21.226 113.541 21.674 113.541 22.178C113.541 22.6727 113.648 23.1207 113.863 23.522C114.087 23.914 114.385 24.2267 114.759 24.46C115.141 24.684 115.566 24.796 116.033 24.796ZM119.169 26.014C118.963 26.014 118.791 25.9487 118.651 25.818C118.52 25.678 118.455 25.5053 118.455 25.3V23.158L118.721 21.674L119.883 22.178V25.3C119.883 25.5053 119.813 25.678 119.673 25.818C119.542 25.9487 119.374 26.014 119.169 26.014ZM116.089 17.138C115.883 17.138 115.711 17.0727 115.571 16.942C115.44 16.802 115.375 16.6293 115.375 16.424C115.375 16.228 115.431 16.0693 115.543 15.948L116.915 14.576C117.055 14.436 117.223 14.366 117.419 14.366C117.633 14.366 117.806 14.436 117.937 14.576C118.067 14.716 118.133 14.8887 118.133 15.094C118.133 15.1873 118.119 15.276 118.091 15.36C118.063 15.444 118.011 15.5187 117.937 15.584L116.579 16.942C116.448 17.0727 116.285 17.138 116.089 17.138ZM128.476 26.014C128.271 26.014 128.098 25.9487 127.958 25.818C127.827 25.678 127.762 25.5053 127.762 25.3V21.856C127.762 21.324 127.664 20.89 127.468 20.554C127.272 20.218 127.006 19.9707 126.67 19.812C126.343 19.644 125.965 19.56 125.536 19.56C125.144 19.56 124.789 19.6393 124.472 19.798C124.155 19.9567 123.903 20.1713 123.716 20.442C123.529 20.7033 123.436 21.0067 123.436 21.352H122.554C122.554 20.764 122.694 20.2413 122.974 19.784C123.263 19.3173 123.655 18.9487 124.15 18.678C124.645 18.4073 125.2 18.272 125.816 18.272C126.46 18.272 127.034 18.412 127.538 18.692C128.051 18.9627 128.453 19.364 128.742 19.896C129.041 20.428 129.19 21.0813 129.19 21.856V25.3C129.19 25.5053 129.12 25.678 128.98 25.818C128.849 25.9487 128.681 26.014 128.476 26.014ZM122.722 26.014C122.517 26.014 122.344 25.9487 122.204 25.818C122.073 25.678 122.008 25.5053 122.008 25.3V19.056C122.008 18.8413 122.073 18.6687 122.204 18.538C122.344 18.4073 122.517 18.342 122.722 18.342C122.937 18.342 123.109 18.4073 123.24 18.538C123.371 18.6687 123.436 18.8413 123.436 19.056V25.3C123.436 25.5053 123.371 25.678 123.24 25.818C123.109 25.9487 122.937 26.014 122.722 26.014ZM134.771 26.07C134.127 26.07 133.548 25.9347 133.035 25.664C132.531 25.384 132.13 24.978 131.831 24.446C131.542 23.914 131.397 23.2607 131.397 22.486V19.042C131.397 18.8367 131.462 18.6687 131.593 18.538C131.733 18.398 131.906 18.328 132.111 18.328C132.316 18.328 132.484 18.398 132.615 18.538C132.755 18.6687 132.825 18.8367 132.825 19.042V22.486C132.825 23.0087 132.923 23.4427 133.119 23.788C133.315 24.124 133.581 24.376 133.917 24.544C134.253 24.7027 134.631 24.782 135.051 24.782C135.452 24.782 135.807 24.7027 136.115 24.544C136.432 24.3853 136.684 24.1707 136.871 23.9C137.058 23.6293 137.151 23.326 137.151 22.99H138.033C138.033 23.5687 137.888 24.0913 137.599 24.558C137.319 25.0247 136.932 25.3933 136.437 25.664C135.952 25.9347 135.396 26.07 134.771 26.07ZM137.865 26C137.66 26 137.487 25.9347 137.347 25.804C137.216 25.664 137.151 25.4913 137.151 25.286V19.042C137.151 18.8273 137.216 18.6547 137.347 18.524C137.487 18.3933 137.66 18.328 137.865 18.328C138.08 18.328 138.252 18.3933 138.383 18.524C138.514 18.6547 138.579 18.8273 138.579 19.042V25.286C138.579 25.4913 138.514 25.664 138.383 25.804C138.252 25.9347 138.08 26 137.865 26ZM146.046 26C145.953 26 145.864 25.986 145.78 25.958C145.696 25.93 145.617 25.8693 145.542 25.776L143.092 22.836L142.588 22.332L140.152 19.448C140.031 19.2987 139.965 19.14 139.956 18.972C139.947 18.7947 139.993 18.6453 140.096 18.524C140.199 18.4027 140.353 18.342 140.558 18.342C140.782 18.342 140.959 18.4213 141.09 18.58L143.484 21.436L143.848 21.772L146.48 24.922C146.62 25.09 146.685 25.258 146.676 25.426C146.676 25.5847 146.615 25.72 146.494 25.832C146.382 25.944 146.233 26 146.046 26ZM140.698 26C140.511 26 140.362 25.944 140.25 25.832C140.147 25.7107 140.096 25.566 140.096 25.398C140.096 25.23 140.161 25.062 140.292 24.894L142.672 21.912L143.428 22.976L141.202 25.776C141.062 25.9253 140.894 26 140.698 26ZM144.156 22.402L143.19 21.576L145.444 18.58C145.519 18.4867 145.598 18.426 145.682 18.398C145.766 18.3607 145.859 18.342 145.962 18.342C146.167 18.342 146.321 18.4073 146.424 18.538C146.527 18.6593 146.573 18.8087 146.564 18.986C146.564 19.1633 146.499 19.336 146.368 19.504L144.156 22.402Z"
        fill="white" />
    <defs>
        <clipPath id="clip0_215_5913">
            <rect width="22" height="22" fill="white" transform="translate(70.5 10)" />
        </clipPath>
    </defs>
</svg>