<?xml version="1.0" encoding="UTF-8" standalone="no"?>
<!-- Created with Inkscape (http://www.inkscape.org/) -->

<svg
   width="210mm"
   height="210mm"
   viewBox="0 0 210 210"
   version="1.1"
   id="svg1"
   xml:space="preserve"
   inkscape:version="1.3 (0e150ed6c4, 2023-07-21)"
   sodipodi:docname="Logo Kánux.svg"
   inkscape:export-filename="..\Pictures\Logo figura- copia 1.svg"
   inkscape:export-xdpi="96"
   inkscape:export-ydpi="96"
   xmlns:inkscape="http://www.inkscape.org/namespaces/inkscape"
   xmlns:sodipodi="http://sodipodi.sourceforge.net/DTD/sodipodi-0.dtd"
   xmlns="http://www.w3.org/2000/svg"
   xmlns:svg="http://www.w3.org/2000/svg"><sodipodi:namedview
     id="namedview1"
     pagecolor="#ffffff"
     bordercolor="#ffffff"
     borderopacity="1"
     inkscape:showpageshadow="0"
     inkscape:pageopacity="0"
     inkscape:pagecheckerboard="1"
     inkscape:deskcolor="#505050"
     inkscape:document-units="mm"
     inkscape:zoom="0.5"
     inkscape:cx="476"
     inkscape:cy="737"
     inkscape:window-width="1920"
     inkscape:window-height="1057"
     inkscape:window-x="-8"
     inkscape:window-y="-8"
     inkscape:window-maximized="1"
     inkscape:current-layer="g13"
     showborder="true"
     inkscape:export-bgcolor="#ffffff00" /><defs
     id="defs1"><linearGradient
       id="swatch121"
       inkscape:swatch="solid"><stop
         style="stop-color:#000000;stop-opacity:0.99124726;"
         offset="0"
         id="stop121" /></linearGradient></defs><g
     inkscape:label="Capia 1"
     inkscape:groupmode="layer"
     id="g13"
     style="display:inline;fill:#284b8c;fill-opacity:1"
     sodipodi:insensitive="true"><path
       id="rect8"
       style="display:inline;fill:#284b8c;fill-opacity:1;stroke:#009400;stroke-width:0;stroke-linecap:square;stroke-dasharray:none;stroke-opacity:0.991247;paint-order:fill markers stroke"
       inkscape:label="bordeExteriorK"
       d="m 17.07441,121.15746 v 76.169 h 47.562472 v -67.01297 a 151.93379,150.69887 0 0 1 -0.566891,0.0227 151.93379,150.69887 0 0 1 -14.831653,-1.33118 v 53.06704 H 32.56287 v -56.24101 a 151.93379,150.69887 0 0 1 -15.48846,-4.67362 z"
       sodipodi:insensitive="true" /></g><g
     inkscape:label="Copia 2"
     inkscape:groupmode="layer"
     id="g18"
     style="display:inline"
     sodipodi:insensitive="true"><path
       id="rect13"
       style="display:inline;fill:#284b8c;fill-opacity:1;stroke:#000000;stroke-width:0;stroke-linecap:square;stroke-dasharray:none;stroke-opacity:0.991247;paint-order:fill markers stroke"
       inkscape:label="bordeExteriorK"
       d="m 17.07441,14.147457 v 72.957304 a 120.06153,119.08566 0 0 0 15.48846,6.073531 V 29.330509 H 49.238338 V 88.730501 L 64.636882,72.915446 V 14.147457 Z"
       sodipodi:insensitive="true" /></g><g
     inkscape:label="Copia 3"
     inkscape:groupmode="layer"
     id="g23"
     style="display:inline"
     sodipodi:insensitive="true"><path
       id="rect18"
       style="display:inline;fill:#2eaa50;fill-opacity:1;stroke:#000000;stroke-width:0;stroke-linecap:square;stroke-dasharray:none;stroke-opacity:0.991247;paint-order:fill markers stroke"
       inkscape:label="bordeExteriorK"
       d="m 17.07441,95.491329 v 15.724101 a 142.62854,141.46924 0 0 0 15.48846,5.06688 142.62854,141.46924 0 0 0 16.675468,3.43493 142.62854,141.46924 0 0 0 6.674528,0.79375 L 38.695312,102.82835 A 127.91093,126.87125 0 0 1 32.56287,101.17109 127.91093,126.87125 0 0 1 17.07441,95.491329 Z" /></g><g
     inkscape:label="Copia 4"
     inkscape:groupmode="layer"
     id="g50"
     style="display:inline"
     sodipodi:insensitive="true"><path
       id="path38"
       style="display:inline;fill:#284b8c;fill-opacity:1;stroke:#000000;stroke-width:0;stroke-linecap:square;stroke-dasharray:none;stroke-opacity:0.991247;paint-order:fill markers stroke"
       inkscape:label="CirculoExteriroInterno"
       d="M 115.11907,14.142806 64.880278,72.915446 75.547327,83.870333 121.90729,29.636434 h 21.58938 l -56.452371,66.041964 1.207679,1.240234 a 120.06153,119.08566 0 0 0 22.537642,-5.936589 l 65.68126,-76.839237 z"
       sodipodi:insensitive="true" /></g><g
     inkscape:label="Copia 5"
     inkscape:groupmode="layer"
     id="g63"
     style="display:inline"
     sodipodi:insensitive="true"><path
       d="m 121.43445,120.54768 a 151.93379,150.69887 0 0 1 -10.26139,3.85145 151.93379,150.69887 0 0 1 -4.88807,1.00717 L 153.001,181.77133 H 131.6824 L 88.165161,129.14044 a 151.93379,150.69887 0 0 1 -0.308508,0.0636 151.93379,150.69887 0 0 1 -18.524451,0.8816 l 55.894778,67.22432 h 60.12088 z"
       style="display:inline;fill:#284b8c;fill-opacity:1;stroke:#000000;stroke-width:0;stroke-linecap:square;stroke-dasharray:none;stroke-opacity:0.991247;paint-order:fill markers stroke"
       id="path72"
       inkscape:label="InclindokIngerior" /></g><g
     inkscape:label="Copia 6"
     inkscape:groupmode="layer"
     id="layer1"
     style="display:inline"
     sodipodi:insensitive="true"><rect
       style="display:inline;fill:#2eaa50;fill-opacity:1;stroke:#000000;stroke-width:0;stroke-linecap:square;stroke-dasharray:none;stroke-opacity:0.991247;paint-order:fill markers stroke"
       id="rect6"
       width="27.403063"
       height="27.403063"
       x="-130.73509"
       y="-37.906883"
       transform="matrix(-0.69761814,-0.71646977,0.69761814,-0.71646977,0,0)"
       inkscape:label="PrismaInterno" /></g><g
     inkscape:label="Copia 7"
     inkscape:groupmode="layer"
     id="g106"
     style="display:inline"
     sodipodi:insensitive="true"><path
       id="path116"
       style="display:inline;fill:#2eaa50;fill-opacity:1;stroke:#000000;stroke-width:0;stroke-linecap:square;stroke-dasharray:none;stroke-opacity:0.991247;paint-order:fill markers stroke"
       d="m 203.76947,6.8967367 -1.4552,1.0640177 -16.59744,12.1356936 -18.26038,13.351123 14.23634,1.592151 1.65002,0.184485 a 127.91093,126.87125 0 0 1 -2.57038,5.640999 127.91093,126.87125 0 0 1 -11.01122,16.618107 127.91093,126.87125 0 0 1 -13.49426,14.707113 127.91093,126.87125 0 0 1 -15.64556,12.435416 127.91093,126.87125 0 0 1 -17.41186,9.857797 127.91093,126.87125 0 0 1 -18.75131,7.037811 127.91093,126.87125 0 0 1 -15.466236,3.18689 L 73.376917,120.7456 a 142.62854,141.46924 0 0 0 11.286649,-0.45734 142.62854,141.46924 0 0 0 19.985864,-3.67832 142.62854,141.46924 0 0 0 19.25619,-6.45852 142.62854,141.46924 0 0 0 18.13429,-9.10798 142.62854,141.46924 0 0 0 16.64498,-11.572932 142.62854,141.46924 0 0 0 14.8177,-13.801742 142.62854,141.46924 0 0 0 12.68863,-15.751493 142.62854,141.46924 0 0 0 10.30273,-17.380335 142.62854,141.46924 0 0 0 0.6227,-1.507401 l 12.0866,9.967867 z" /></g></svg>
